<?xml version="1.0" encoding="utf-8"?>
<!-- Generator: Adobe Illustrator 22.1.0, SVG Export Plug-In . SVG Version: 6.00 Build 0)  -->
<svg version="1.1" xmlns="http://www.w3.org/2000/svg" xmlns:xlink="http://www.w3.org/1999/xlink" x="0px" y="0px"
	 viewBox="0 0 229.7 92.4" style="enable-background:new 0 0 229.7 92.4;" xml:space="preserve">
<style type="text/css">
	.st0{fill:#485B65;}
	.st1{fill:#FFFFFF;}
	.st2{fill:#FDE772;}
</style>
<g id="_x31_">
</g>
<g id="Layer_2">
	<g>
		<path class="st0" d="M79.1,72.2c4.5-2.6,6-4.8,6-9.3V43h-5.3v-3.4h9.5v22c0,5.2-1,8.4-4.8,11.4c-1.1,0.8-2.3,1.6-3.5,2.2
			L79.1,72.2z"/>
		<path class="st0" d="M110,62.7l-3.1,0.6h-0.5v-3.2h-0.1c-2,1.5-4.5,3.1-7.8,3.1c-2.9,0-6-2.1-6-6.2c0-5.6,5-6.3,7.7-6.7l6-0.8V48
			c0-3.8-1.8-4.9-5.1-4.9c-1.2,0-4.4,0.4-6.9,1.5L93.7,41c2.1-0.8,5.4-1.4,8.1-1.4c4.8,0,8.3,2,8.3,8.4V62.7z M106.2,52.3l-6.2,0.9
			c-1.6,0.2-3.5,0.9-3.5,3.5c0,1.9,1.3,3.2,3.3,3.2c2.1,0,4.5-1.3,6.4-2.7V52.3z"/>
		<path class="st0" d="M113.8,62.8V40.3l3-0.7h0.5l0.2,4.7h0.1c1.7-3.3,4-4.2,6.9-4.2c0.9,0,1.2,0,1.7,0.1V41l-0.2,3
			c-0.5,0-0.7,0-1.2,0c-3.1,0-5.3,1.2-7.2,4.8v14.2H113.8z"/>
		<path class="st0" d="M136.6,63.3l-8.2-23h4.3l6.4,19.4h0.2l6.5-19.4h4.1l-8.2,23H136.6z"/>
		<path class="st0" d="M153,62.8V40.3l3.4-0.7h0.5v23.2H153z"/>
		<path class="st0" d="M159.8,59.1h0.4c2.3,0.5,4.3,0.8,6.2,0.8c3,0,5.1-0.7,5.1-3.3c0-4.7-11.7-2.8-11.7-10.6
			c0-4.2,3.9-6.5,8.9-6.5c2,0,3.9,0.3,5.8,0.9V44h-0.4c-2.1-0.7-3.8-1-5.4-1c-2.4,0-4.8,0.5-4.8,3c0,4.5,11.7,2.7,11.7,10.2
			c0,5.5-4.4,7.1-9.3,7.1c-2.4,0-4.8-0.3-6.5-0.7V59.1z"/>
	</g>
	<polyline class="st0" points="45.1,65.7 63.8,65.7 71.5,55.8 65,45.8 54.5,53.1 	"/>
	<polygon class="st0" points="63.8,65.7 45.2,65.7 37,55.3 44,45.8 54.5,53.1 	"/>
	<path class="st2" d="M59.1,35c-2-4.1-4.7-9.7-4.7-9.7S47.3,38.4,47,39c2.6,2.5,6.7,6.5,7,6.9c0.3-0.3,4.6-4,7.3-6.4
		c0-0.1-0.1-0.1-0.1-0.1S60.3,37.4,59.1,35z"/>
	<path class="st2" d="M153,34.7v-4.4h4v3.4L153,34.7z"/>
</g>
</svg>
